STARTFONT 2.1
FONT math.8x16
SIZE 14 80 80
FONTBOUNDINGBOX 8 16 0 -4

STARTPROPERTIES 9
POINT_SIZE 140
WEIGHT 10
RESOLUTION_X 80
RESOLUTION_Y 80
X_HEIGHT 0
QUAD_WIDTH 8
DEFAULT_CHAR 32
FONT_DESCENT 4
FONT_ASCENT 12
ENDPROPERTIES

CHARS 96

STARTCHAR onx32
ENCODING 32
SWIDTH 500 0
DWIDTH 8 0
BBX 8 16 0 -4
BITMAP
00
00
00
00
00
00
00
00
00
00
00
00
00
00
00
00
ENDCHAR

STARTCHAR onx33
ENCODING 33
SWIDTH 500 0
DWIDTH 8 0
BBX 8 16 0 -4
BITMAP
01
02
02
02
04
04
04
08
08
48
28
10
00
00
00
00
ENDCHAR

STARTCHAR onx34
ENCODING 34
SWIDTH 500 0
DWIDTH 8 0
BBX 8 16 0 -4
BITMAP
10
10
10
10
10
10
10
10
10
10
10
10
10
10
10
10
ENDCHAR

STARTCHAR onx35
ENCODING 35
SWIDTH 500 0
DWIDTH 8 0
BBX 8 16 0 -4
BITMAP
00
00
1C
22
10
38
44
22
1C
08
44
38
00
00
00
00
ENDCHAR

STARTCHAR onx36
ENCODING 36
SWIDTH 500 0
DWIDTH 8 0
BBX 8 16 0 -4
BITMAP
00
00
FE
82
82
44
44
44
28
28
10
10
00
00
00
00
ENDCHAR

STARTCHAR onx37
ENCODING 37
SWIDTH 500 0
DWIDTH 8 0
BBX 8 16 0 -4
BITMAP
00
00
00
00
10
10
7C
10
10
00
7C
00
00
00
00
00
ENDCHAR

STARTCHAR onx38
ENCODING 38
SWIDTH 500 0
DWIDTH 8 0
BBX 8 16 0 -4
BITMAP
00
00
00
00
00
00
19
26
42
42
46
39
00
00
00
00
ENDCHAR

STARTCHAR onx39
ENCODING 39
SWIDTH 500 0
DWIDTH 8 0
BBX 8 16 0 -4
BITMAP
00
0C
12
12
10
10
10
10
10
10
10
10
10
10
10
10
ENDCHAR

STARTCHAR onx40
ENCODING 40
SWIDTH 500 0
DWIDTH 8 0
BBX 8 16 0 -4
BITMAP
00
00
00
00
00
10
00
FE
00
10
00
00
00
00
00
00
ENDCHAR

STARTCHAR onx41
ENCODING 41
SWIDTH 500 0
DWIDTH 8 0
BBX 8 16 0 -4
BITMAP
00
00
00
00
00
32
4C
00
7E
00
00
00
00
00
00
00
ENDCHAR

STARTCHAR onx42
ENCODING 42
SWIDTH 500 0
DWIDTH 8 0
BBX 8 16 0 -4
BITMAP
00
7E
24
24
24
24
24
24
24
24
24
24
00
00
00
00
ENDCHAR

STARTCHAR onx43
ENCODING 43
SWIDTH 500 0
DWIDTH 8 0
BBX 8 16 0 -4
BITMAP
00
00
7E
22
22
20
20
20
20
20
20
70
00
00
00
00
ENDCHAR

STARTCHAR onx44
ENCODING 44
SWIDTH 500 0
DWIDTH 8 0
BBX 8 16 0 -4
BITMAP
00
00
BA
92
92
54
38
10
10
10
10
38
00
00
00
00
ENDCHAR

STARTCHAR onx45
ENCODING 45
SWIDTH 500 0
DWIDTH 8 0
BBX 8 16 0 -4
BITMAP
00
00
00
00
00
7E
00
7E
00
7E
00
00
00
00
00
00
ENDCHAR

STARTCHAR onx46
ENCODING 46
SWIDTH 500 0
DWIDTH 8 0
BBX 8 16 0 -4
BITMAP
00
00
38
10
7C
D6
92
92
D6
7C
10
38
00
00
00
00
ENDCHAR

STARTCHAR onx47
ENCODING 47
SWIDTH 500 0
DWIDTH 8 0
BBX 8 16 0 -4
BITMAP
00
00
00
7E
00
00
00
3C
00
00
00
7E
00
00
00
00
ENDCHAR

STARTCHAR onx48
ENCODING 48
SWIDTH 500 0
DWIDTH 8 0
BBX 8 16 0 -4
BITMAP
00
18
24
24
24
18
00
00
00
00
00
00
00
00
00
00
ENDCHAR

STARTCHAR onx49
ENCODING 49
SWIDTH 500 0
DWIDTH 8 0
BBX 8 16 0 -4
BITMAP
00
10
30
10
10
38
00
00
00
00
00
00
00
00
00
00
ENDCHAR

STARTCHAR onx50
ENCODING 50
SWIDTH 500 0
DWIDTH 8 0
BBX 8 16 0 -4
BITMAP
00
18
24
08
10
3C
00
00
00
00
00
00
00
00
00
00
ENDCHAR

STARTCHAR onx51
ENCODING 51
SWIDTH 500 0
DWIDTH 8 0
BBX 8 16 0 -4
BITMAP
00
38
04
18
04
38
00
00
00
00
00
00
00
00
00
00
ENDCHAR

STARTCHAR onx52
ENCODING 52
SWIDTH 500 0
DWIDTH 8 0
BBX 8 16 0 -4
BITMAP
00
28
28
3C
08
08
00
00
00
00
00
00
00
00
00
00
ENDCHAR

STARTCHAR onx53
ENCODING 53
SWIDTH 500 0
DWIDTH 8 0
BBX 8 16 0 -4
BITMAP
00
3C
20
38
04
38
00
00
00
00
00
00
00
00
00
00
ENDCHAR

STARTCHAR onx54
ENCODING 54
SWIDTH 500 0
DWIDTH 8 0
BBX 8 16 0 -4
BITMAP
00
18
20
38
24
18
00
00
00
00
00
00
00
00
00
00
ENDCHAR

STARTCHAR onx55
ENCODING 55
SWIDTH 500 0
DWIDTH 8 0
BBX 8 16 0 -4
BITMAP
00
3C
04
08
10
10
00
00
00
00
00
00
00
00
00
00
ENDCHAR

STARTCHAR onx56
ENCODING 56
SWIDTH 500 0
DWIDTH 8 0
BBX 8 16 0 -4
BITMAP
00
18
24
18
24
18
00
00
00
00
00
00
00
00
00
00
ENDCHAR

STARTCHAR onx57
ENCODING 57
SWIDTH 500 0
DWIDTH 8 0
BBX 8 16 0 -4
BITMAP
00
18
24
1C
04
18
00
00
00
00
00
00
00
00
00
00
ENDCHAR

STARTCHAR onx58
ENCODING 58
SWIDTH 500 0
DWIDTH 8 0
BBX 8 16 0 -4
BITMAP
00
00
38
44
82
82
82
82
44
44
28
EE
00
00
00
00
ENDCHAR

STARTCHAR onx59
ENCODING 59
SWIDTH 500 0
DWIDTH 8 0
BBX 8 16 0 -4
BITMAP
00
00
00
10
10
28
28
44
44
82
82
C6
00
00
00
00
ENDCHAR

STARTCHAR onx60
ENCODING 60
SWIDTH 500 0
DWIDTH 8 0
BBX 8 16 0 -4
BITMAP
00
00
00
00
00
00
6C
92
92
6C
00
00
00
00
00
00
ENDCHAR

STARTCHAR onx61
ENCODING 61
SWIDTH 500 0
DWIDTH 8 0
BBX 8 16 0 -4
BITMAP
10
10
10
10
10
10
10
10
10
10
10
10
90
90
60
00
ENDCHAR

STARTCHAR onx62
ENCODING 62
SWIDTH 500 0
DWIDTH 8 0
BBX 8 16 0 -4
BITMAP
00
00
10
38
10
FE
10
10
10
10
10
10
00
00
00
00
ENDCHAR

STARTCHAR onx63
ENCODING 63
SWIDTH 500 0
DWIDTH 8 0
BBX 8 16 0 -4
BITMAP
00
00
7E
42
20
10
08
08
10
20
42
7E
00
00
00
00
ENDCHAR

STARTCHAR onx64
ENCODING 64
SWIDTH 500 0
DWIDTH 8 0
BBX 8 16 0 -4
BITMAP
00
00
7E
94
94
94
74
14
14
14
14
14
00
00
00
00
ENDCHAR

STARTCHAR onx65
ENCODING 65
SWIDTH 500 0
DWIDTH 8 0
BBX 8 16 0 -4
BITMAP
00
00
00
00
00
00
19
26
42
42
46
39
00
00
00
00
ENDCHAR

STARTCHAR onx66
ENCODING 66
SWIDTH 500 0
DWIDTH 8 0
BBX 8 16 0 -4
BITMAP
00
00
3C
42
42
42
7C
42
42
42
62
5C
40
80
00
00
ENDCHAR

STARTCHAR onx67
ENCODING 67
SWIDTH 500 0
DWIDTH 8 0
BBX 8 16 0 -4
BITMAP
00
00
00
10
92
92
92
92
92
54
38
10
10
10
00
00
ENDCHAR

STARTCHAR onx68
ENCODING 68
SWIDTH 500 0
DWIDTH 8 0
BBX 8 16 0 -4
BITMAP
00
00
00
00
00
04
3C
6A
4A
52
56
3C
20
00
00
00
ENDCHAR

STARTCHAR onx69
ENCODING 69
SWIDTH 500 0
DWIDTH 8 0
BBX 8 16 0 -4
BITMAP
00
00
00
00
00
3C
60
40
78
40
60
3C
00
00
00
00
ENDCHAR

STARTCHAR onx70
ENCODING 70
SWIDTH 500 0
DWIDTH 8 0
BBX 8 16 0 -4
BITMAP
00
00
18
24
02
02
3A
46
42
42
24
18
00
00
00
00
ENDCHAR

STARTCHAR onx71
ENCODING 71
SWIDTH 500 0
DWIDTH 8 0
BBX 8 16 0 -4
BITMAP
00
00
20
20
10
10
08
08
14
14
22
22
00
00
00
00
ENDCHAR

STARTCHAR onx72
ENCODING 72
SWIDTH 500 0
DWIDTH 8 0
BBX 8 16 0 -4
BITMAP
00
00
00
00
00
00
9C
62
42
42
42
42
02
00
00
00
ENDCHAR

STARTCHAR onx73
ENCODING 73
SWIDTH 500 0
DWIDTH 8 0
BBX 8 16 0 -4
BITMAP
00
00
00
00
00
00
10
10
10
10
10
14
08
00
00
00
ENDCHAR

STARTCHAR onx74
ENCODING 74
SWIDTH 500 0
DWIDTH 8 0
BBX 8 16 0 -4
BITMAP
00
00
00
3C
42
42
42
7E
42
42
42
3C
00
00
00
00
ENDCHAR

STARTCHAR onx75
ENCODING 75
SWIDTH 500 0
DWIDTH 8 0
BBX 8 16 0 -4
BITMAP
00
00
00
00
00
00
22
24
28
38
24
22
00
00
00
00
ENDCHAR

STARTCHAR onx76
ENCODING 76
SWIDTH 500 0
DWIDTH 8 0
BBX 8 16 0 -4
BITMAP
00
00
00
00
00
00
44
82
92
92
92
6C
00
00
00
00
ENDCHAR

STARTCHAR onx77
ENCODING 77
SWIDTH 500 0
DWIDTH 8 0
BBX 8 16 0 -4
BITMAP
00
00
00
00
00
00
42
42
42
42
66
5B
40
00
00
00
ENDCHAR

STARTCHAR onx78
ENCODING 78
SWIDTH 500 0
DWIDTH 8 0
BBX 8 16 0 -4
BITMAP
00
00
00
00
00
22
62
22
14
14
08
08
00
00
00
00
ENDCHAR

STARTCHAR onx79
ENCODING 79
SWIDTH 500 0
DWIDTH 8 0
BBX 8 16 0 -4
BITMAP
00
00
00
00
00
00
3C
62
42
42
66
5C
40
40
40
00
ENDCHAR

STARTCHAR onx80
ENCODING 80
SWIDTH 500 0
DWIDTH 8 0
BBX 8 16 0 -4
BITMAP
00
00
00
00
00
02
7E
A4
24
24
24
24
00
00
00
00
ENDCHAR

STARTCHAR onx81
ENCODING 81
SWIDTH 500 0
DWIDTH 8 0
BBX 8 16 0 -4
BITMAP
00
00
00
00
00
62
92
94
08
08
18
18
30
30
00
00
ENDCHAR

STARTCHAR onx82
ENCODING 82
SWIDTH 500 0
DWIDTH 8 0
BBX 8 16 0 -4
BITMAP
00
00
00
18
24
42
42
7E
42
42
24
18
00
00
00
00
ENDCHAR

STARTCHAR onx83
ENCODING 83
SWIDTH 500 0
DWIDTH 8 0
BBX 8 16 0 -4
BITMAP
00
00
00
00
00
00
3E
44
44
44
44
38
00
00
00
00
ENDCHAR

STARTCHAR onx84
ENCODING 84
SWIDTH 500 0
DWIDTH 8 0
BBX 8 16 0 -4
BITMAP
00
00
00
00
00
00
7E
90
10
10
10
18
00
00
00
00
ENDCHAR

STARTCHAR onx85
ENCODING 85
SWIDTH 500 0
DWIDTH 8 0
BBX 8 16 0 -4
BITMAP
00
00
5C
32
6C
40
20
1C
20
40
40
38
04
18
00
00
ENDCHAR

STARTCHAR onx86
ENCODING 86
SWIDTH 500 0
DWIDTH 8 0
BBX 8 16 0 -4
BITMAP
00
00
00
10
10
28
28
44
44
82
82
FE
00
00
00
00
ENDCHAR

STARTCHAR onx87
ENCODING 87
SWIDTH 500 0
DWIDTH 8 0
BBX 8 16 0 -4
BITMAP
00
00
18
24
20
10
18
24
42
42
62
3C
00
00
00
00
ENDCHAR

STARTCHAR onx88
ENCODING 88
SWIDTH 500 0
DWIDTH 8 0
BBX 8 16 0 -4
BITMAP
00
00
00
00
00
00
42
24
18
18
24
42
00
00
00
00
ENDCHAR

STARTCHAR onx89
ENCODING 89
SWIDTH 500 0
DWIDTH 8 0
BBX 8 16 0 -4
BITMAP
00
00
00
00
00
00
42
22
22
22
14
08
00
00
00
00
ENDCHAR

STARTCHAR onx90
ENCODING 90
SWIDTH 500 0
DWIDTH 8 0
BBX 8 16 0 -4
BITMAP
00
00
5C
32
2C
40
40
40
40
40
40
38
04
18
00
00
ENDCHAR

STARTCHAR onx91
ENCODING 91
SWIDTH 500 0
DWIDTH 8 0
BBX 8 16 0 -4
BITMAP
00
00
10
38
7C
10
10
10
10
10
10
10
00
00
00
00
ENDCHAR

STARTCHAR onx92
ENCODING 92
SWIDTH 500 0
DWIDTH 8 0
BBX 8 16 0 -4
BITMAP
00
00
00
00
00
08
0C
7E
0C
08
00
00
00
00
00
00
ENDCHAR

STARTCHAR onx93
ENCODING 93
SWIDTH 500 0
DWIDTH 8 0
BBX 8 16 0 -4
BITMAP
00
00
6C
BA
92
10
10
10
10
10
10
38
00
00
00
00
ENDCHAR

STARTCHAR onx94
ENCODING 94
SWIDTH 500 0
DWIDTH 8 0
BBX 8 16 0 -4
BITMAP
00
00
00
00
00
10
30
7E
30
10
00
00
00
00
00
00
ENDCHAR

STARTCHAR onx95
ENCODING 95
SWIDTH 500 0
DWIDTH 8 0
BBX 8 16 0 -4
BITMAP
00
00
10
10
10
10
10
10
10
7C
38
10
00
00
00
00
ENDCHAR

STARTCHAR onx96
ENCODING 96
SWIDTH 500 0
DWIDTH 8 0
BBX 8 16 0 -4
BITMAP
00
00
7E
94
94
94
74
14
14
14
14
14
00
00
00
00
ENDCHAR

STARTCHAR onx97
ENCODING 97
SWIDTH 500 0
DWIDTH 8 0
BBX 8 16 0 -4
BITMAP
00
00
00
00
00
00
19
26
42
42
46
39
00
00
00
00
ENDCHAR

STARTCHAR onx98
ENCODING 98
SWIDTH 500 0
DWIDTH 8 0
BBX 8 16 0 -4
BITMAP
00
00
3C
42
42
42
7C
42
42
42
62
5C
40
80
00
00
ENDCHAR

STARTCHAR onx99
ENCODING 99
SWIDTH 500 0
DWIDTH 8 0
BBX 8 16 0 -4
BITMAP
00
00
00
10
92
92
92
92
92
54
38
10
10
10
00
00
ENDCHAR

STARTCHAR onx100
ENCODING 100
SWIDTH 500 0
DWIDTH 8 0
BBX 8 16 0 -4
BITMAP
00
00
00
00
00
04
3C
6A
4A
52
56
3C
20
00
00
00
ENDCHAR

STARTCHAR onx101
ENCODING 101
SWIDTH 500 0
DWIDTH 8 0
BBX 8 16 0 -4
BITMAP
00
00
00
00
00
3C
60
40
78
40
60
3C
00
00
00
00
ENDCHAR

STARTCHAR onx102
ENCODING 102
SWIDTH 500 0
DWIDTH 8 0
BBX 8 16 0 -4
BITMAP
00
00
18
24
02
02
3A
46
42
42
24
18
00
00
00
00
ENDCHAR

STARTCHAR onx103
ENCODING 103
SWIDTH 500 0
DWIDTH 8 0
BBX 8 16 0 -4
BITMAP
00
00
20
20
10
10
08
08
14
14
22
22
00
00
00
00
ENDCHAR

STARTCHAR onx104
ENCODING 104
SWIDTH 500 0
DWIDTH 8 0
BBX 8 16 0 -4
BITMAP
00
00
00
00
00
00
9C
62
42
42
42
42
02
00
00
00
ENDCHAR

STARTCHAR onx105
ENCODING 105
SWIDTH 500 0
DWIDTH 8 0
BBX 8 16 0 -4
BITMAP
00
00
00
00
00
00
10
10
10
10
10
14
08
00
00
00
ENDCHAR

STARTCHAR onx106
ENCODING 106
SWIDTH 500 0
DWIDTH 8 0
BBX 8 16 0 -4
BITMAP
00
00
00
3C
42
42
42
7E
42
42
42
3C
00
00
00
00
ENDCHAR

STARTCHAR onx107
ENCODING 107
SWIDTH 500 0
DWIDTH 8 0
BBX 8 16 0 -4
BITMAP
00
00
00
00
00
00
22
24
28
38
24
22
00
00
00
00
ENDCHAR

STARTCHAR onx108
ENCODING 108
SWIDTH 500 0
DWIDTH 8 0
BBX 8 16 0 -4
BITMAP
00
00
00
00
00
00
44
82
92
92
92
6C
00
00
00
00
ENDCHAR

STARTCHAR onx109
ENCODING 109
SWIDTH 500 0
DWIDTH 8 0
BBX 8 16 0 -4
BITMAP
00
00
00
00
00
00
42
42
42
42
66
5B
40
00
00
00
ENDCHAR

STARTCHAR onx110
ENCODING 110
SWIDTH 500 0
DWIDTH 8 0
BBX 8 16 0 -4
BITMAP
00
00
00
00
00
22
62
22
14
14
08
08
00
00
00
00
ENDCHAR

STARTCHAR onx111
ENCODING 111
SWIDTH 500 0
DWIDTH 8 0
BBX 8 16 0 -4
BITMAP
00
00
00
00
00
00
3C
62
42
42
66
5C
40
40
40
00
ENDCHAR

STARTCHAR onx112
ENCODING 112
SWIDTH 500 0
DWIDTH 8 0
BBX 8 16 0 -4
BITMAP
00
00
00
00
00
02
7E
A4
24
24
24
24
00
00
00
00
ENDCHAR

STARTCHAR onx113
ENCODING 113
SWIDTH 500 0
DWIDTH 8 0
BBX 8 16 0 -4
BITMAP
00
00
00
00
00
62
92
94
08
08
18
18
30
30
00
00
ENDCHAR

STARTCHAR onx114
ENCODING 114
SWIDTH 500 0
DWIDTH 8 0
BBX 8 16 0 -4
BITMAP
00
00
00
18
24
42
42
7E
42
42
24
18
00
00
00
00
ENDCHAR

STARTCHAR onx115
ENCODING 115
SWIDTH 500 0
DWIDTH 8 0
BBX 8 16 0 -4
BITMAP
00
00
00
00
00
00
3E
44
44
44
44
38
00
00
00
00
ENDCHAR

STARTCHAR onx116
ENCODING 116
SWIDTH 500 0
DWIDTH 8 0
BBX 8 16 0 -4
BITMAP
00
00
00
00
00
00
7E
90
10
10
10
18
00
00
00
00
ENDCHAR

STARTCHAR onx117
ENCODING 117
SWIDTH 500 0
DWIDTH 8 0
BBX 8 16 0 -4
BITMAP
00
00
5C
32
6C
40
20
1C
20
40
40
38
04
18
00
00
ENDCHAR

STARTCHAR onx118
ENCODING 118
SWIDTH 500 0
DWIDTH 8 0
BBX 8 16 0 -4
BITMAP
00
00
00
10
10
28
28
44
44
82
82
FE
00
00
00
00
ENDCHAR

STARTCHAR onx119
ENCODING 119
SWIDTH 500 0
DWIDTH 8 0
BBX 8 16 0 -4
BITMAP
00
00
18
24
20
10
18
24
42
42
62
3C
00
00
00
00
ENDCHAR

STARTCHAR onx120
ENCODING 120
SWIDTH 500 0
DWIDTH 8 0
BBX 8 16 0 -4
BITMAP
00
00
00
00
00
00
42
24
18
18
24
42
00
00
00
00
ENDCHAR

STARTCHAR onx121
ENCODING 121
SWIDTH 500 0
DWIDTH 8 0
BBX 8 16 0 -4
BITMAP
00
00
00
00
00
00
42
22
22
22
14
08
00
00
00
00
ENDCHAR

STARTCHAR onx122
ENCODING 122
SWIDTH 500 0
DWIDTH 8 0
BBX 8 16 0 -4
BITMAP
00
00
5C
32
2C
40
40
40
40
40
40
38
04
18
00
00
ENDCHAR

STARTCHAR onx123
ENCODING 123
SWIDTH 500 0
DWIDTH 8 0
BBX 8 16 0 -4
BITMAP
00
00
10
38
7C
10
10
10
10
10
10
10
00
00
00
00
ENDCHAR

STARTCHAR onx124
ENCODING 124
SWIDTH 500 0
DWIDTH 8 0
BBX 8 16 0 -4
BITMAP
00
00
00
00
00
08
0C
7E
0C
08
00
00
00
00
00
00
ENDCHAR

STARTCHAR onx125
ENCODING 125
SWIDTH 500 0
DWIDTH 8 0
BBX 8 16 0 -4
BITMAP
00
00
6C
BA
92
10
10
10
10
10
10
38
00
00
00
00
ENDCHAR

STARTCHAR onx126
ENCODING 126
SWIDTH 500 0
DWIDTH 8 0
BBX 8 16 0 -4
BITMAP
00
00
00
00
00
10
30
7E
30
10
00
00
00
00
00
00
ENDCHAR

STARTCHAR onx127
ENCODING 127
SWIDTH 500 0
DWIDTH 8 0
BBX 8 16 0 -4
BITMAP
00
00
00
00
00
00
00
00
00
00
00
00
00
00
00
00
ENDCHAR
ENDFONT
